<svg id="Gradient" height="512" viewBox="0 0 512 512" width="512" xmlns="http://www.w3.org/2000/svg" xmlns:xlink="http://www.w3.org/1999/xlink"><linearGradient id="linear-gradient" gradientUnits="userSpaceOnUse" x1="256" x2="256" y1="496" y2="16"><stop offset="0" stop-color="#12c2e9"/><stop offset=".5" stop-color="#c471ed"/><stop offset="1" stop-color="#f64f59"/></linearGradient><path d="m312 32a39.256 39.256 0 0 0 -14.251 2.708 55.938 55.938 0 0 0 -83.5 0 39.256 39.256 0 0 0 -14.249-2.708 40.049 40.049 0 0 0 -39.933 37.744c-4.856 8.643-24.067 45.349-24.067 85.203 0 26.81 6.726 47.762 15.242 74.287 13.824 43.066 32.758 102.042 32.758 226.766v32a8 8 0 0 0 8 8h128a8 8 0 0 0 8-8v-32c0-124.724 18.934-183.7 32.758-226.766 8.516-26.525 15.242-47.477 15.242-74.287 0-39.854-19.211-76.56-24.067-85.2a40.049 40.049 0 0 0 -39.933-37.747zm-139.284 48h166.568a200.925 200.925 0 0 1 13.389 32h-193.346a200.907 200.907 0 0 1 13.389-32zm27.284-32a23.564 23.564 0 0 1 12.373 3.562 8 8 0 0 0 10.727-2.285 39.956 39.956 0 0 1 65.792 0 8 8 0 0 0 10.731 2.285 23.564 23.564 0 0 1 12.377-3.562 24.042 24.042 0 0 1 22.629 16h-157.258a24.042 24.042 0 0 1 22.629-16zm0 432v-16h112v16zm145.524-255.657c-13.847 43.136-32.7 101.884-33.5 223.657h-112.053c-.794-121.773-19.648-180.521-33.5-223.657-8.083-25.192-14.471-45.091-14.471-69.396a129.025 129.025 0 0 1 3.051-26.947h201.9a129.025 129.025 0 0 1 3.049 26.947c0 24.305-6.388 44.204-14.476 69.396zm-57.524-80.343a24 24 0 1 0 24 24 24.027 24.027 0 0 0 -24-24zm0 32a8 8 0 1 1 8-8 8.009 8.009 0 0 1 -8 8zm-72 32a24 24 0 1 0 24 24 24.027 24.027 0 0 0 -24-24zm0 32a8 8 0 1 1 8-8 8.009 8.009 0 0 1 -8 8zm-24-56a8 8 0 1 1 -8-8 8 8 0 0 1 8 8zm48-32a8 8 0 1 1 -8-8 8 8 0 0 1 8 8zm32 152a8 8 0 1 1 -8-8 8 8 0 0 1 8 8zm56-88a8 8 0 1 1 -8-8 8 8 0 0 1 8 8z" fill="url(#linear-gradient)"/></svg>